<mxfile host="65bd71144e" modified="2020-11-28T02:20:54.774Z" agent="5.0 (Windows NT 10.0; Win64; x64) AppleWebKit/537.36 (KHTML, like Gecko) Code/1.51.1 Chrome/83.0.4103.122 Electron/9.3.3 Safari/537.36" etag="H95dqYJaXDhuqSxAwKBt" version="13.6.5">
    <diagram id="a3JUaDs7XSauVLccwMSm" name="Page-1">
        <mxGraphModel dx="974" dy="430" grid="1" gridSize="10" guides="1" tooltips="1" connect="1" arrows="1" fold="1" page="1" pageScale="1" pageWidth="827" pageHeight="1169" math="0" shadow="0">
            <root>
                <mxCell id="0"/>
                <mxCell id="1" parent="0"/>
                <mxCell id="90" value="" style="edgeStyle=orthogonalEdgeStyle;fontSize=12;html=1;endArrow=ERzeroToMany;startArrow=ERmandOne;exitX=0;exitY=0.5;exitDx=0;exitDy=0;entryX=1;entryY=0.5;entryDx=0;entryDy=0;" parent="1" source="13" target="92" edge="1">
                    <mxGeometry width="100" height="100" relative="1" as="geometry">
                        <mxPoint x="550" y="300" as="sourcePoint"/>
                        <mxPoint x="570" y="470" as="targetPoint"/>
                        <Array as="points">
                            <mxPoint x="530" y="265"/>
                            <mxPoint x="530" y="471"/>
                        </Array>
                    </mxGeometry>
                </mxCell>
                <mxCell id="93" value="" style="fontSize=12;html=1;endArrow=ERzeroToMany;startArrow=ERmandOne;entryX=1;entryY=0.5;entryDx=0;entryDy=0;exitX=0;exitY=0.5;exitDx=0;exitDy=0;" parent="1" source="21" target="106" edge="1">
                    <mxGeometry width="100" height="100" relative="1" as="geometry">
                        <mxPoint x="570" y="201" as="sourcePoint"/>
                        <mxPoint x="210" y="120" as="targetPoint"/>
                        <Array as="points"/>
                    </mxGeometry>
                </mxCell>
                <mxCell id="94" value="" style="fontSize=12;html=1;endArrow=ERzeroToMany;startArrow=ERmandOne;exitX=1;exitY=0.5;exitDx=0;exitDy=0;entryX=0;entryY=0.5;entryDx=0;entryDy=0;" parent="1" source="77" target="68" edge="1">
                    <mxGeometry width="100" height="100" relative="1" as="geometry">
                        <mxPoint x="314" y="670" as="sourcePoint"/>
                        <mxPoint x="570" y="668" as="targetPoint"/>
                    </mxGeometry>
                </mxCell>
                <mxCell id="99" value="" style="edgeStyle=orthogonalEdgeStyle;fontSize=12;html=1;endArrow=ERzeroToMany;startArrow=ERmandOne;exitX=1;exitY=0.5;exitDx=0;exitDy=0;entryX=1;entryY=0.5;entryDx=0;entryDy=0;" parent="1" source="21" target="31" edge="1">
                    <mxGeometry width="100" height="100" relative="1" as="geometry">
                        <mxPoint x="660" y="350" as="sourcePoint"/>
                        <mxPoint x="760" y="710" as="targetPoint"/>
                        <Array as="points">
                            <mxPoint x="790" y="205"/>
                            <mxPoint x="790" y="731"/>
                        </Array>
                    </mxGeometry>
                </mxCell>
                <mxCell id="105" value="" style="edgeStyle=orthogonalEdgeStyle;fontSize=12;html=1;endArrow=ERzeroToMany;startArrow=ERmandOne;exitX=0;exitY=0.5;exitDx=0;exitDy=0;entryX=0;entryY=0.5;entryDx=0;entryDy=0;" parent="1" source="77" target="106" edge="1">
                    <mxGeometry width="100" height="100" relative="1" as="geometry">
                        <mxPoint x="100" y="740" as="sourcePoint"/>
                        <mxPoint x="60" y="201" as="targetPoint"/>
                        <Array as="points">
                            <mxPoint x="10" y="761"/>
                            <mxPoint x="10" y="201"/>
                        </Array>
                    </mxGeometry>
                </mxCell>
                <mxCell id="108" value="" style="edgeStyle=entityRelationEdgeStyle;fontSize=12;html=1;endArrow=ERoneToMany;startArrow=ERmandOne;entryX=0;entryY=0.5;entryDx=0;entryDy=0;exitX=1;exitY=0.5;exitDx=0;exitDy=0;" parent="1" source="27" target="92" edge="1">
                    <mxGeometry width="100" height="100" relative="1" as="geometry">
                        <mxPoint x="330" y="635" as="sourcePoint"/>
                        <mxPoint x="430" y="535" as="targetPoint"/>
                    </mxGeometry>
                </mxCell>
                <mxCell id="35" value="タスク" style="swimlane;fontStyle=0;childLayout=stackLayout;horizontal=1;startSize=26;horizontalStack=0;resizeParent=1;resizeParentMax=0;resizeLast=0;collapsible=1;marginBottom=0;align=center;fontSize=14;" parent="1" vertex="1">
                    <mxGeometry x="80" y="40" width="160" height="344" as="geometry"/>
                </mxCell>
                <mxCell id="44" value="タスクid(PK)" style="text;strokeColor=none;fillColor=none;spacingLeft=7;spacingRight=4;overflow=hidden;rotatable=0;points=[[0,0.5],[1,0.5]];portConstraint=eastwest;fontSize=12;" parent="35" vertex="1">
                    <mxGeometry y="26" width="160" height="30" as="geometry"/>
                </mxCell>
                <mxCell id="36" value="タスク内容" style="text;strokeColor=none;fillColor=none;spacingLeft=7;spacingRight=4;overflow=hidden;rotatable=0;points=[[0,0.5],[1,0.5]];portConstraint=eastwest;fontSize=12;" parent="35" vertex="1">
                    <mxGeometry y="56" width="160" height="30" as="geometry"/>
                </mxCell>
                <mxCell id="37" value="担当者id(FK)" style="text;strokeColor=none;fillColor=none;spacingLeft=7;spacingRight=4;overflow=hidden;rotatable=0;points=[[0,0.5],[1,0.5]];portConstraint=eastwest;fontSize=12;" parent="35" vertex="1">
                    <mxGeometry y="86" width="160" height="30" as="geometry"/>
                </mxCell>
                <mxCell id="43" value="更新者id(FK)" style="text;strokeColor=none;fillColor=none;spacingLeft=7;spacingRight=4;overflow=hidden;rotatable=0;points=[[0,0.5],[1,0.5]];portConstraint=eastwest;fontSize=12;" parent="35" vertex="1">
                    <mxGeometry y="116" width="160" height="30" as="geometry"/>
                </mxCell>
                <mxCell id="106" value="進捗(完了・未完)" style="text;strokeColor=none;fillColor=none;spacingLeft=7;spacingRight=4;overflow=hidden;rotatable=0;points=[[0,0.5],[1,0.5]];portConstraint=eastwest;fontSize=12;" parent="35" vertex="1">
                    <mxGeometry y="146" width="160" height="30" as="geometry"/>
                </mxCell>
                <mxCell id="38" value="タスク期限" style="text;strokeColor=none;fillColor=none;spacingLeft=7;spacingRight=4;overflow=hidden;rotatable=0;points=[[0,0.5],[1,0.5]];portConstraint=eastwest;fontSize=12;" parent="35" vertex="1">
                    <mxGeometry y="176" width="160" height="30" as="geometry"/>
                </mxCell>
                <mxCell id="39" value="登録チャットルームid(FK)" style="text;strokeColor=none;fillColor=none;spacingLeft=7;spacingRight=4;overflow=hidden;rotatable=0;points=[[0,0.5],[1,0.5]];portConstraint=eastwest;fontSize=12;" parent="35" vertex="1">
                    <mxGeometry y="206" width="160" height="30" as="geometry"/>
                </mxCell>
                <mxCell id="41" value="作成者id(FK)" style="text;strokeColor=none;fillColor=none;spacingLeft=7;spacingRight=4;overflow=hidden;rotatable=0;points=[[0,0.5],[1,0.5]];portConstraint=eastwest;fontSize=12;" parent="35" vertex="1">
                    <mxGeometry y="236" width="160" height="30" as="geometry"/>
                </mxCell>
                <mxCell id="40" value="作成日時" style="text;strokeColor=none;fillColor=none;spacingLeft=7;spacingRight=4;overflow=hidden;rotatable=0;points=[[0,0.5],[1,0.5]];portConstraint=eastwest;fontSize=12;" parent="35" vertex="1">
                    <mxGeometry y="266" width="160" height="30" as="geometry"/>
                </mxCell>
                <mxCell id="42" value="更新日時" style="text;strokeColor=none;fillColor=none;spacingLeft=7;spacingRight=4;overflow=hidden;rotatable=0;points=[[0,0.5],[1,0.5]];portConstraint=eastwest;fontSize=12;" parent="35" vertex="1">
                    <mxGeometry y="296" width="160" height="24" as="geometry"/>
                </mxCell>
                <mxCell id="76" value="論理削除" style="text;strokeColor=none;fillColor=none;spacingLeft=7;spacingRight=4;overflow=hidden;rotatable=0;points=[[0,0.5],[1,0.5]];portConstraint=eastwest;fontSize=12;" parent="35" vertex="1">
                    <mxGeometry y="320" width="160" height="24" as="geometry"/>
                </mxCell>
                <mxCell id="10" value="利用者情報" style="swimlane;fontStyle=0;childLayout=stackLayout;horizontal=1;startSize=26;horizontalStack=0;resizeParent=1;resizeParentMax=0;resizeLast=0;collapsible=1;marginBottom=0;align=center;fontSize=14;" parent="1" vertex="1">
                    <mxGeometry x="570" y="40" width="192.67" height="330" as="geometry"/>
                </mxCell>
                <mxCell id="11" value="利用者id（PK）" style="text;strokeColor=none;fillColor=none;spacingLeft=8;spacingRight=0;overflow=hidden;rotatable=0;points=[[0,0.5],[1,0.5]];portConstraint=eastwest;fontSize=12;aspect=fixed;" parent="10" vertex="1">
                    <mxGeometry y="26" width="192.67" height="34" as="geometry"/>
                </mxCell>
                <mxCell id="12" value="メールアドレス" style="text;strokeColor=none;fillColor=none;spacingLeft=8;spacingRight=0;overflow=hidden;rotatable=0;points=[[0,0.5],[1,0.5]];portConstraint=eastwest;fontSize=12;aspect=fixed;" parent="10" vertex="1">
                    <mxGeometry y="60" width="192.67" height="30" as="geometry"/>
                </mxCell>
                <mxCell id="14" value="表示名" style="text;strokeColor=none;fillColor=none;spacingLeft=8;spacingRight=0;overflow=hidden;rotatable=0;points=[[0,0.5],[1,0.5]];portConstraint=eastwest;fontSize=12;aspect=fixed;" parent="10" vertex="1">
                    <mxGeometry y="90" width="192.67" height="30" as="geometry"/>
                </mxCell>
                <mxCell id="20" value="自己紹介" style="text;strokeColor=none;fillColor=none;spacingLeft=8;spacingRight=0;overflow=hidden;rotatable=0;points=[[0,0.5],[1,0.5]];portConstraint=eastwest;fontSize=12;aspect=fixed;" parent="10" vertex="1">
                    <mxGeometry y="120" width="192.67" height="30" as="geometry"/>
                </mxCell>
                <mxCell id="21" value="勤務先の電話番号" style="text;strokeColor=none;fillColor=none;spacingLeft=8;spacingRight=0;overflow=hidden;rotatable=0;points=[[0,0.5],[1,0.5]];portConstraint=eastwest;fontSize=12;aspect=fixed;" parent="10" vertex="1">
                    <mxGeometry y="150" width="192.67" height="30" as="geometry"/>
                </mxCell>
                <mxCell id="22" value="携帯電話の電話番号" style="text;strokeColor=none;fillColor=none;spacingLeft=8;spacingRight=0;overflow=hidden;rotatable=0;points=[[0,0.5],[1,0.5]];portConstraint=eastwest;fontSize=12;aspect=fixed;" parent="10" vertex="1">
                    <mxGeometry y="180" width="192.67" height="30" as="geometry"/>
                </mxCell>
                <mxCell id="13" value="パスワード" style="text;strokeColor=none;fillColor=none;spacingLeft=8;spacingRight=0;overflow=hidden;rotatable=0;points=[[0,0.5],[1,0.5]];portConstraint=eastwest;fontSize=12;aspect=fixed;" parent="10" vertex="1">
                    <mxGeometry y="210" width="192.67" height="30" as="geometry"/>
                </mxCell>
                <mxCell id="4" value="会員登録日時" style="text;strokeColor=none;fillColor=none;spacingLeft=7;spacingRight=4;overflow=hidden;rotatable=0;points=[[0,0.5],[1,0.5]];portConstraint=eastwest;fontSize=12;" parent="10" vertex="1">
                    <mxGeometry y="240" width="192.67" height="30" as="geometry"/>
                </mxCell>
                <mxCell id="80" value="更新日時" style="text;strokeColor=none;fillColor=none;spacingLeft=7;spacingRight=4;overflow=hidden;rotatable=0;points=[[0,0.5],[1,0.5]];portConstraint=eastwest;fontSize=12;" parent="10" vertex="1">
                    <mxGeometry y="270" width="192.67" height="30" as="geometry"/>
                </mxCell>
                <mxCell id="45" value="論理削除" style="text;strokeColor=none;fillColor=none;spacingLeft=8;spacingRight=0;overflow=hidden;rotatable=0;points=[[0,0.5],[1,0.5]];portConstraint=eastwest;fontSize=12;aspect=fixed;" parent="10" vertex="1">
                    <mxGeometry y="300" width="192.67" height="30" as="geometry"/>
                </mxCell>
                <mxCell id="25" value="チャットルーム" style="swimlane;fontStyle=0;childLayout=stackLayout;horizontal=1;startSize=26;horizontalStack=0;resizeParent=1;resizeParentMax=0;resizeLast=0;collapsible=1;marginBottom=0;align=center;fontSize=14;" parent="1" vertex="1">
                    <mxGeometry x="80" y="600" width="200" height="326" as="geometry"/>
                </mxCell>
                <mxCell id="26" value="チャットルームid(PK)" style="text;strokeColor=none;fillColor=none;spacingLeft=7;spacingRight=4;overflow=hidden;rotatable=0;points=[[0,0.5],[1,0.5]];portConstraint=eastwest;fontSize=12;" parent="25" vertex="1">
                    <mxGeometry y="26" width="200" height="30" as="geometry"/>
                </mxCell>
                <mxCell id="51" value="チャット名" style="text;strokeColor=none;fillColor=none;spacingLeft=7;spacingRight=4;overflow=hidden;rotatable=0;points=[[0,0.5],[1,0.5]];portConstraint=eastwest;fontSize=12;" parent="25" vertex="1">
                    <mxGeometry y="56" width="200" height="30" as="geometry"/>
                </mxCell>
                <mxCell id="27" value="チャット概要" style="text;strokeColor=none;fillColor=none;spacingLeft=7;spacingRight=4;overflow=hidden;rotatable=0;points=[[0,0.5],[1,0.5]];portConstraint=eastwest;fontSize=12;" parent="25" vertex="1">
                    <mxGeometry y="86" width="200" height="30" as="geometry"/>
                </mxCell>
                <mxCell id="28" value="ファイル送信制御" style="text;strokeColor=none;fillColor=none;spacingLeft=7;spacingRight=4;overflow=hidden;rotatable=0;points=[[0,0.5],[1,0.5]];portConstraint=eastwest;fontSize=12;" parent="25" vertex="1">
                    <mxGeometry y="116" width="200" height="30" as="geometry"/>
                </mxCell>
                <mxCell id="77" value="ダイレクトチャットフラグ" style="text;strokeColor=none;fillColor=none;spacingLeft=7;spacingRight=4;overflow=hidden;rotatable=0;points=[[0,0.5],[1,0.5]];portConstraint=eastwest;fontSize=12;" parent="25" vertex="1">
                    <mxGeometry y="146" width="200" height="30" as="geometry"/>
                </mxCell>
                <mxCell id="104" value="作成者id" style="text;strokeColor=none;fillColor=none;spacingLeft=7;spacingRight=4;overflow=hidden;rotatable=0;points=[[0,0.5],[1,0.5]];portConstraint=eastwest;fontSize=12;" parent="25" vertex="1">
                    <mxGeometry y="176" width="200" height="30" as="geometry"/>
                </mxCell>
                <mxCell id="103" value="更新者id" style="text;strokeColor=none;fillColor=none;spacingLeft=7;spacingRight=4;overflow=hidden;rotatable=0;points=[[0,0.5],[1,0.5]];portConstraint=eastwest;fontSize=12;" parent="25" vertex="1">
                    <mxGeometry y="206" width="200" height="30" as="geometry"/>
                </mxCell>
                <mxCell id="102" value="作成日時" style="text;strokeColor=none;fillColor=none;spacingLeft=7;spacingRight=4;overflow=hidden;rotatable=0;points=[[0,0.5],[1,0.5]];portConstraint=eastwest;fontSize=12;" parent="25" vertex="1">
                    <mxGeometry y="236" width="200" height="30" as="geometry"/>
                </mxCell>
                <mxCell id="101" value="更新日時" style="text;strokeColor=none;fillColor=none;spacingLeft=7;spacingRight=4;overflow=hidden;rotatable=0;points=[[0,0.5],[1,0.5]];portConstraint=eastwest;fontSize=12;" parent="25" vertex="1">
                    <mxGeometry y="266" width="200" height="30" as="geometry"/>
                </mxCell>
                <mxCell id="81" value="論理削除" style="text;strokeColor=none;fillColor=none;spacingLeft=7;spacingRight=4;overflow=hidden;rotatable=0;points=[[0,0.5],[1,0.5]];portConstraint=eastwest;fontSize=12;" parent="25" vertex="1">
                    <mxGeometry y="296" width="200" height="30" as="geometry"/>
                </mxCell>
                <mxCell id="30" value="投稿内容" style="swimlane;fontStyle=0;childLayout=stackLayout;horizontal=1;startSize=26;horizontalStack=0;resizeParent=1;resizeParentMax=0;resizeLast=0;collapsible=1;marginBottom=0;align=center;fontSize=14;" parent="1" vertex="1">
                    <mxGeometry x="602.67" y="600" width="160" height="296" as="geometry"/>
                </mxCell>
                <mxCell id="67" value="投稿id(PK)" style="text;strokeColor=none;fillColor=none;spacingLeft=7;spacingRight=4;overflow=hidden;rotatable=0;points=[[0,0.5],[1,0.5]];portConstraint=eastwest;fontSize=12;" parent="30" vertex="1">
                    <mxGeometry y="26" width="160" height="30" as="geometry"/>
                </mxCell>
                <mxCell id="74" value="チャットルームid(FK)" style="text;strokeColor=none;fillColor=none;spacingLeft=7;spacingRight=4;overflow=hidden;rotatable=0;points=[[0,0.5],[1,0.5]];portConstraint=eastwest;fontSize=12;" parent="30" vertex="1">
                    <mxGeometry y="56" width="160" height="30" as="geometry"/>
                </mxCell>
                <mxCell id="32" value="投稿テキスト内容" style="text;strokeColor=none;fillColor=none;spacingLeft=7;spacingRight=4;overflow=hidden;rotatable=0;points=[[0,0.5],[1,0.5]];portConstraint=eastwest;fontSize=12;" parent="30" vertex="1">
                    <mxGeometry y="86" width="160" height="30" as="geometry"/>
                </mxCell>
                <mxCell id="31" value="投稿ファイル名" style="text;strokeColor=none;fillColor=none;spacingLeft=7;spacingRight=4;overflow=hidden;rotatable=0;points=[[0,0.5],[1,0.5]];portConstraint=eastwest;fontSize=12;" parent="30" vertex="1">
                    <mxGeometry y="116" width="160" height="30" as="geometry"/>
                </mxCell>
                <mxCell id="68" value="投稿者id(FK)" style="text;strokeColor=none;fillColor=none;spacingLeft=7;spacingRight=4;overflow=hidden;rotatable=0;points=[[0,0.5],[1,0.5]];portConstraint=eastwest;fontSize=12;" parent="30" vertex="1">
                    <mxGeometry y="146" width="160" height="30" as="geometry"/>
                </mxCell>
                <mxCell id="82" value="更新者id" style="text;strokeColor=none;fillColor=none;spacingLeft=7;spacingRight=4;overflow=hidden;rotatable=0;points=[[0,0.5],[1,0.5]];portConstraint=eastwest;fontSize=12;" parent="30" vertex="1">
                    <mxGeometry y="176" width="160" height="30" as="geometry"/>
                </mxCell>
                <mxCell id="33" value="投稿日時" style="text;strokeColor=none;fillColor=none;spacingLeft=7;spacingRight=4;overflow=hidden;rotatable=0;points=[[0,0.5],[1,0.5]];portConstraint=eastwest;fontSize=12;" parent="30" vertex="1">
                    <mxGeometry y="206" width="160" height="30" as="geometry"/>
                </mxCell>
                <mxCell id="73" value="更新日時" style="text;strokeColor=none;fillColor=none;spacingLeft=7;spacingRight=4;overflow=hidden;rotatable=0;points=[[0,0.5],[1,0.5]];portConstraint=eastwest;fontSize=12;" parent="30" vertex="1">
                    <mxGeometry y="236" width="160" height="30" as="geometry"/>
                </mxCell>
                <mxCell id="100" value="論理削除" style="text;strokeColor=none;fillColor=none;spacingLeft=7;spacingRight=4;overflow=hidden;rotatable=0;points=[[0,0.5],[1,0.5]];portConstraint=eastwest;fontSize=12;" parent="30" vertex="1">
                    <mxGeometry y="266" width="160" height="30" as="geometry"/>
                </mxCell>
                <mxCell id="46" value="チャットルーム参加状況" style="swimlane;fontStyle=0;childLayout=stackLayout;horizontal=1;startSize=26;horizontalStack=0;resizeParent=1;resizeParentMax=0;resizeLast=0;collapsible=1;marginBottom=0;align=center;fontSize=14;" parent="1" vertex="1">
                    <mxGeometry x="280" y="400" width="200" height="116" as="geometry"/>
                </mxCell>
                <mxCell id="48" value="参加者id(PK/FK)" style="text;strokeColor=none;fillColor=none;spacingLeft=7;spacingRight=4;overflow=hidden;rotatable=0;points=[[0,0.5],[1,0.5]];portConstraint=eastwest;fontSize=12;" parent="46" vertex="1">
                    <mxGeometry y="26" width="200" height="30" as="geometry"/>
                </mxCell>
                <mxCell id="92" value="チャットルームid(PK/FK)" style="text;strokeColor=none;fillColor=none;spacingLeft=7;spacingRight=4;overflow=hidden;rotatable=0;points=[[0,0.5],[1,0.5]];portConstraint=eastwest;fontSize=12;" parent="46" vertex="1">
                    <mxGeometry y="56" width="200" height="30" as="geometry"/>
                </mxCell>
                <mxCell id="49" value="参加日時" style="text;strokeColor=none;fillColor=none;spacingLeft=7;spacingRight=4;overflow=hidden;rotatable=0;points=[[0,0.5],[1,0.5]];portConstraint=eastwest;fontSize=12;" parent="46" vertex="1">
                    <mxGeometry y="86" width="200" height="30" as="geometry"/>
                </mxCell>
            </root>
        </mxGraphModel>
    </diagram>
</mxfile>